# xmcd CD database file
#
# Track frame offsets:
#	150
#	16354
#	31646
#	42604
#	61427
#	73776
#	84440
#	97957
#	113901
#	124610
#	137076
#
# Disc length: 2008 seconds
#
# Revision: 0
# Processed by: cddbd v1.5.2PL0 Copyright (c) Steve Scherf et al.
# Submitted via: CDex 1.51
#
DISCID=8f07d60b
DTITLE=Midnight Train - Christmas Country
DYEAR=1900
DGENRE=Country
TTITLE0=White Christmas
TTITLE1=Kommt der Weinachtsmann nach Texas
TTITLE2=Rudolph, the Rednosed Reindeer
TTITLE3=Big Old Joe, der Weinachtsbär
TTITLE4=Winterwonderland
TTITLE5=Der Weinachtsmann sah aus wie Papa
TTITLE6=Weiße Weinacht im Wilden Westen
TTITLE7=Christmas in Dixie
TTITLE8=Erwin, der dicke Schneemann
TTITLE9=Jingle Bells
TTITLE10=Wir wünschen Euch ein frohes Fest
EXTD=
EXTT0=
EXTT1=
EXTT2=
EXTT3=
EXTT4=
EXTT5=
EXTT6=
EXTT7=
EXTT8=
EXTT9=
EXTT10=
PLAYORDER=
